<?xml version="1.0" encoding="UTF-8"?>
<svg id="Layer_1" data-name="Layer 1" xmlns="http://www.w3.org/2000/svg" viewBox="0 0 3000 3000">
  <polygon points="1171.65 614.34 858.12 1123.48 871.52 2332.02 2192.61 2332.02 2192.61 941.26 1729.02 539.3 1276.15 539.3 1171.65 614.34" fill="#fff"/>
  <polygon points="2077.81 1106.07 1687.43 1260.92 1632.9 1723.27 1571.84 2061.31 1177.09 2159.46 880.48 2150.73 911.02 2327.39 1591.47 2371.01 2213.03 2362.28 2197.76 1127.88 2077.81 1106.07" fill="#d6805f"/>
  <polygon points="930.1 2142.01 1476.42 2142.01 1628.54 1908.1 1666.16 1335.61 1795.38 1147.51 2192.85 1085.35 2099.62 787.66 1810.1 619.18 1379.92 728.77 1260.51 1062.45 1368.47 1329.07 1271.96 1656.21 880.48 1823.05 930.1 2142.01" fill="#d8a99c"/>
  <polygon points="1610.85 597.92 1263.78 895.61 1293.22 1244.01 1353.74 1473.01 1147.65 1738.54 880.48 1773.98 935.01 910.33 1221.25 570 1625.27 509.59 1610.85 606.9 1610.85 597.92" fill="#f6dbd2"/>
  <path d="M1900.46,1027.37c-24.33,6.03-142.24,37.28-240.95,145.46-139.99,153.43-135.04,345.05-131.46,396.9h-133.7v169.44h134.19v147.63c0,49.42-19.36,97.2-54.9,131.55-1.09,1.05-2.2,2.1-3.33,3.15-59.28,54.61-131.91,52.49-146.58,51.76-79.65-.3-290.15-.59-369.79-.89-.3,52.35-.59,104.71-.89,157.06,112.74-.52,356.33-1.04,469.07-1.56,27.11-5.38,120.38-27.36,192.76-114.45,67.79-81.57,75.58-170.1,76.92-198.78v-175.46h139.82v-169.44h-138.46l.73-88.44c.64-77.27,30.22-151.86,84.04-207.31,1.26-1.3,2.54-2.59,3.83-3.88,13.9-13.84,67.42-64.6,155.16-85.56,42.29-10.11,127.12-30.38,205.36,18.63,60.73,38.04,84.85,97.37,93.03,121.14,2.01-85,4.02-170,6.02-255-36.2-18.71-172.46-83.65-340.89-41.94Z"/>
  <path d="M2193.91,825.43c-23.08-41.24-51.92-83.34-88.01-124.24-213.44-241.91-510.95-250.18-561.16-250.75-63.97.46-276.15,9.96-470.16,167.84-79.15,64.41-135.25,137.22-175.02,207.01-63.53,111.47-95.95,237.97-95.95,366.28v1223.44c0,8.38,6.79,15.17,15.17,15.17h1451.94c8.38,0,15.17-6.79,15.17-15.17v-1232.48c0-124.89-30.98-248.1-91.96-357.08ZM2108.93,2278.5H984.59c-8.38,0-15.17-6.79-15.17-15.17v-1084.2c0-107.64,21.92-178.84,71.45-272.35,30.98-58.49,79.47-121.5,145.6-169.86,180.65-132.12,340.4-124.99,390.23-125.38,39.11.48,238.67,6.25,413.7,205.37,29.23,33.25,44.05,55.8,62.01,90.32,47.57,91.44,71.68,159.51,71.68,264.31v1091.8c0,8.38-6.79,15.17-15.17,15.17Z"/>
  <path d="M1345.78,657.13c-18.78,13.28-109.09,79.41-157.28,204.86-68.34,177.92-1.68,340.01,18.72,383.13l30.58,75.82c25.29,66.25,24.95,139.87-2.51,205.26-.64,1.53-1.3,3.06-1.98,4.6-7.25,16.48-36.02,77.74-103.99,124.99-32.76,22.78-98.48,68.46-181.73,52.73-64.61-12.21-105.07-54.84-120-72.42,26.7,73.31,53.4,146.62,80.1,219.93,37.19,3.88,175.35,13.83,305.34-78.12,18.78-13.28,109.09-79.41,157.28-204.86,68.34-177.92.04-340.01-20.35-383.13l-28.94-75.82c-25.29-66.25-24.95-139.87,2.51-205.26.64-1.53,1.3-3.06,1.98-4.6,9.36-21.26,24.03-41.17,37.86-59.64,22.72-30.34,48.99-59.36,80.68-80.53,29.99-20.04,74.07-33.41,109.22-39.43,66.49-11.4,125.78-8.67,193.03-4.31,119.18,7.71,222.24,58.67,237.18,76.25-26.7-73.31-53.4-146.62-80.1-219.93-37.19-3.88-427.6-11.46-557.6,80.49Z"/>
</svg>