<?xml version="1.0" encoding="UTF-8"?>
<svg width="32" height="32" viewBox="0 0 32 32" version="1.1" xmlns="http://www.w3.org/2000/svg">
  <defs>
    <linearGradient id="peachGradient" x1="0%" y1="0%" x2="100%" y2="100%">
      <stop offset="0%" style="stop-color:#FFE4D6;"/>
      <stop offset="50%" style="stop-color:#E5C4B6;"/>
      <stop offset="100%" style="stop-color:#D6805F;"/>
    </linearGradient>
  </defs>
  <path d="M4 0h24a4 4 0 0 1 4 4v24a4 4 0 0 1-4 4H4a4 4 0 0 1-4-4V4a4 4 0 0 1 4-4z" fill="#000"/>
  <path d="M11.5 6c-.8 0-1.4.2-2 .6-.5.4-1 1-1.2 1.7-.3.7-.4 1.6-.4 2.7v4c0 1 .1 2 .4 2.7.2.7.6 1.3 1.2 1.7.6.4 1.2.6 2 .6.9 0 1.6-.2 2.2-.7.6-.5 1-1.1 1.2-2h-1.8c-.1.4-.3.7-.6 1-.3.2-.6.3-1 .3-.5 0-.9-.2-1.2-.6-.3-.4-.4-1-.4-1.8v-1.2h5v-2.8c0-1.1-.1-2-.4-2.7-.2-.7-.6-1.3-1.2-1.7-.6-.5-1.2-.7-2-.7zm8.5 0c-.8 0-1.4.2-2 .6-.5.4-1 1-1.2 1.7-.3.7-.4 1.6-.4 2.7v4c0 1 .1 2 .4 2.7.2.7.6 1.3 1.2 1.7.6.4 1.2.6 2 .6.9 0 1.6-.2 2.2-.7.6-.5 1-1.1 1.2-2h-1.8c-.1.4-.3.7-.6 1-.3.2-.6.3-1 .3-.5 0-.9-.2-1.2-.6-.3-.4-.4-1-.4-1.8v-1.2h5v-2.8c0-1.1-.1-2-.4-2.7-.2-.7-.6-1.3-1.2-1.7-.6-.5-1.2-.7-2-.7z" fill="url(#peachGradient)"/>
</svg> 